<?xml version="1.0" encoding="utf-8"?>
<!-- Generator: Adobe Illustrator 16.0.0, SVG Export Plug-In . SVG Version: 6.00 Build 0)  -->
<!DOCTYPE svg PUBLIC "-//W3C//DTD SVG 1.1//EN" "http://www.w3.org/Graphics/SVG/1.1/DTD/svg11.dtd">
<svg version="1.1" id="Layer_1" xmlns="http://www.w3.org/2000/svg" xmlns:xlink="http://www.w3.org/1999/xlink" x="0px" y="0px"
	 width="16px" height="16px" viewBox="0 0 16 16" enable-background="new 0 0 16 16" xml:space="preserve">
<path fill="#333333" d="M16,13H0V2h16V13z M1,12h14V3H1V12z"/>
<g>
	<path fill="#333333" d="M7.639,5.321L7.018,6.096C6.559,5.601,5.901,5.294,5.262,5.294c-1.26,0-2.25,0.973-2.25,2.215
		c0,1.242,0.99,2.224,2.25,2.224c0.631,0,1.278-0.287,1.756-0.746l0.63,0.701c-0.639,0.631-1.548,1.035-2.439,1.035
		c-1.846,0-3.277-1.396-3.277-3.205c0-1.791,1.45-3.169,3.313-3.169C6.136,4.349,7.026,4.718,7.639,5.321z"/>
	<path fill="#333333" d="M13.775,5.321l-0.621,0.774c-0.459-0.495-1.115-0.802-1.756-0.802c-1.26,0-2.25,0.973-2.25,2.215
		c0,1.242,0.99,2.225,2.25,2.225c0.631,0,1.278-0.289,1.756-0.748l0.631,0.703c-0.639,0.629-1.549,1.035-2.439,1.035
		c-1.846,0-3.277-1.396-3.277-3.206c0-1.791,1.451-3.169,3.313-3.169C12.273,4.349,13.164,4.718,13.775,5.321z"/>
</g>
</svg>
