<?xml version="1.0" encoding="utf-8"?>
<!-- Generator: Adobe Illustrator 16.0.0, SVG Export Plug-In . SVG Version: 6.00 Build 0)  -->
<!DOCTYPE svg PUBLIC "-//W3C//DTD SVG 1.1//EN" "http://www.w3.org/Graphics/SVG/1.1/DTD/svg11.dtd">
<svg version="1.1" id="Layer_1" xmlns="http://www.w3.org/2000/svg" xmlns:xlink="http://www.w3.org/1999/xlink" x="0px" y="0px"
	 width="16px" height="16px" viewBox="0 0 16 16" enable-background="new 0 0 16 16" xml:space="preserve">
<polygon fill="#375898" points="8.316,15.947 1.716,13.855 1.716,2.252 8.316,0 "/>
<polygon fill="#24497F" points="14.233,0.739 9.241,0 9.241,15.947 14.282,15.293 "/>
<polygon fill="#375898" points="11.442,14.466 10.343,14.593 10.343,8.649 11.442,8.649 "/>
<path fill="#375898" d="M13.642,6.943l-1.121-0.082c-0.168,0.244-0.474,0.415-0.791,0.415c-0.375,0-0.482-0.224-0.631-0.541
	l-0.756-0.078V5.736l0.82,0.082c0.167-0.244,0.322-0.416,0.643-0.416c0.374,0,0.709,0.225,0.857,0.542l0.979,0.076V6.943z"/>
<polygon fill="#375898" points="13.642,4.011 10.342,3.725 10.342,2.804 13.642,3.089 "/>
</svg>
