<?xml version="1.0" encoding="utf-8"?>
<!-- Generator: Adobe Illustrator 16.0.0, SVG Export Plug-In . SVG Version: 6.00 Build 0)  -->
<!DOCTYPE svg PUBLIC "-//W3C//DTD SVG 1.1//EN" "http://www.w3.org/Graphics/SVG/1.1/DTD/svg11.dtd">
<svg version="1.1" id="Layer_1" xmlns="http://www.w3.org/2000/svg" xmlns:xlink="http://www.w3.org/1999/xlink" x="0px" y="0px"
	 width="16px" height="16px" viewBox="0 0 16 16" enable-background="new 0 0 16 16" xml:space="preserve">
<path fill="#333333" d="M6.957,11.086l3.707-7.413C9.949,4.022,9.193,4.375,7.999,4.375C5.104,4.375,5,3,3,3s-3.007,6.602-3,8
	c0.007,1.52,1,3,2,3C3.807,14,3.991,11.559,6.957,11.086z"/>
<path opacity="0.3" fill="#333333" enable-background="new    " d="M13,3c-0.984,0-1.643,0.334-2.336,0.673l-3.707,7.413
	C7.274,11.035,7.613,11,8,11c4,0,4,3,6,3c1,0,2-0.906,2-3.062C16,9.831,15,3,13,3z"/>
</svg>
