<?xml version="1.0" encoding="utf-8"?>
<!-- Generator: Adobe Illustrator 16.0.0, SVG Export Plug-In . SVG Version: 6.00 Build 0)  -->
<!DOCTYPE svg PUBLIC "-//W3C//DTD SVG 1.1//EN" "http://www.w3.org/Graphics/SVG/1.1/DTD/svg11.dtd">
<svg version="1.1" id="Layer_1" xmlns="http://www.w3.org/2000/svg" xmlns:xlink="http://www.w3.org/1999/xlink" x="0px" y="0px"
	 width="16px" height="16px" viewBox="0 0 16 16" enable-background="new 0 0 16 16" xml:space="preserve">
<path fill="#333333" d="M9,7h3.99C12.939,4.874,11.213,3.232,9,3V7z"/>
<path fill="#333333" d="M4,8v3.781C4,14.111,6.015,16,8.5,16c2.484,0,4.5-1.889,4.5-4.219V8H4z"/>
<path fill="#333333" d="M8,7V3C5.787,3.232,4.061,4.874,4.01,7H8z"/>
<polygon fill="#333333" points="9,0 9,1 9,1 8.021,1 8,1 8,3 9,3 9,2 9.021,2 10,2 10,0 "/>
</svg>
