<?xml version="1.0" encoding="utf-8"?>
<!-- Generator: Adobe Illustrator 16.0.0, SVG Export Plug-In . SVG Version: 6.00 Build 0)  -->
<!DOCTYPE svg PUBLIC "-//W3C//DTD SVG 1.1//EN" "http://www.w3.org/Graphics/SVG/1.1/DTD/svg11.dtd">
<svg version="1.1" id="Layer_1" xmlns="http://www.w3.org/2000/svg" xmlns:xlink="http://www.w3.org/1999/xlink" x="0px" y="0px"
	 width="16px" height="16px" viewBox="0 0 16 16" enable-background="new 0 0 16 16" xml:space="preserve">
<path fill="#333333" d="M16,14V0H0v14h4v1H3v1h1h8h1v-1h-1v-1H16z M1,12V2h14v10H1z"/>
<path fill="#333333" d="M11,6v3h2v2h1V6H11z M13,8h-1V7h1V8z"/>
<path fill="#333333" d="M8,8H6V6H5v5h3V8z M7,10H6V9h1V10z"/>
<rect x="9" y="7" fill="#333333" width="1" height="1"/>
<rect x="9" y="9" fill="#333333" width="1" height="1"/>
<rect x="3" y="6" fill="#333333" width="1" height="5"/>
</svg>
