<?xml version="1.0" encoding="utf-8"?>
<!-- Generator: Adobe Illustrator 16.0.0, SVG Export Plug-In . SVG Version: 6.00 Build 0)  -->
<!DOCTYPE svg PUBLIC "-//W3C//DTD SVG 1.1//EN" "http://www.w3.org/Graphics/SVG/1.1/DTD/svg11.dtd">
<svg version="1.1" id="Layer_1" xmlns="http://www.w3.org/2000/svg" xmlns:xlink="http://www.w3.org/1999/xlink" x="0px" y="0px"
	 width="16px" height="16px" viewBox="0 0 16 16" enable-background="new 0 0 16 16" xml:space="preserve">
<path fill="#333333" d="M8.967,2.89c0.418,0.015,0.867,0.03,1.225,0.03c0.356,0,0.744-0.016,1.132-0.03
	c0.093,0.093,0.093,0.418,0,0.511c-0.806,0.125-1.147,0.713-1.524,1.442L8.665,6.947L10.648,11h0.072l2.944-6.319
	c0.368-0.84,0.341-1.23-0.667-1.307c-0.094-0.093-0.094-0.404,0-0.498c0.574,0.015,1.178,0.038,1.535,0.038
	c0.355,0,0.869-0.013,1.363-0.028c0.094,0.093,0.094,0.42,0,0.513c-0.883,0.093-1.18,0.701-1.522,1.443l-3.671,7.91
	c-0.109,0.232-0.202,0.355-0.373,0.355c-0.155,0-0.275-0.125-0.355-0.355L7.889,8.251L5.6,12.753
	c-0.092,0.233-0.202,0.356-0.372,0.356c-0.155,0-0.263-0.123-0.357-0.356l-3.373-7.94C1.025,3.712,0.912,3.458,0.11,3.401
	C0.018,3.309,0.001,2.983,0.095,2.89c0.542,0.015,1.096,0.03,1.612,0.03c0.47,0,1.102-0.016,1.722-0.03
	c0.093,0.093,0.093,0.418,0,0.511C2.453,3.51,2.406,3.704,2.8,4.587L5.639,11H5.71l1.733-3.469L6.136,4.785
	c-0.52-1.1-0.644-1.305-1.311-1.397C4.732,3.294,4.717,2.976,4.81,2.883c0.45,0.015,0.926,0.034,1.38,0.034
	c0.492,0,0.962-0.014,1.412-0.029c0.093,0.093,0.093,0.419,0,0.512C6.95,3.494,7.012,3.758,7.438,4.642L8.2,6.209l0.068,0.07
	L9.09,4.735c0.48-0.899,0.543-1.24-0.123-1.333C8.874,3.309,8.874,2.983,8.967,2.89z"/>
</svg>
